<svg xmlns="http://www.w3.org/2000/svg" xmlns:xlink="http://www.w3.org/1999/xlink" width="1000" zoomAndPan="magnify"
    viewBox="0 0 750 74.999997" height="100" preserveAspectRatio="xMidYMid meet" version="1.0">
    <defs>
        <g />
    </defs>
    <g fill="#000000" fill-opacity="1">
        <g transform="translate(3.628137, 59.127433)">
            <g>
                <path
                    d="M 55.21875 -38.75 C 55.738281 -40.320312 56 -41.550781 56 -42.4375 C 56 -44.238281 55.210938 -45.203125 53.640625 -45.328125 L 63.84375 -45.328125 C 63.1875 -45.203125 62.34375 -44.695312 61.3125 -43.8125 C 60.28125 -42.9375 59.320312 -41.222656 58.4375 -38.671875 L 44.21875 1.578125 L 31.5 -34.921875 L 18.390625 1.578125 L 5.40625 -38.875 C 4.257812 -42.5625 2.585938 -44.710938 0.390625 -45.328125 L 11.328125 -45.328125 C 10.097656 -45.109375 9.484375 -44.382812 9.484375 -43.15625 C 9.484375 -42.539062 9.75 -41.441406 10.28125 -39.859375 L 11 -37.5625 L 19.3125 -10.078125 L 32.6875 -46.578125 L 45.40625 -10.34375 Z M 55.21875 -38.75 " />
            </g>
        </g>
    </g>
    <g fill="#000000" fill-opacity="1">
        <g transform="translate(75.222639, 59.127433)">
            <g>
                <path
                    d="M 5.59375 0 C 5.59375 0.132812 5.859375 0.0351562 6.390625 -0.296875 C 6.921875 -0.628906 7.394531 -1.285156 7.8125 -2.265625 C 8.226562 -3.253906 8.4375 -4.695312 8.4375 -6.59375 L 8.4375 -38.9375 C 8.4375 -40.738281 8.226562 -42.109375 7.8125 -43.046875 C 7.394531 -43.992188 6.921875 -44.644531 6.390625 -45 C 5.859375 -45.351562 5.59375 -45.460938 5.59375 -45.328125 L 29.453125 -45.328125 L 29.453125 -38.75 C 28.660156 -41.382812 26.289062 -42.703125 22.34375 -42.703125 L 13.171875 -42.703125 L 13.171875 -23.984375 L 24.515625 -23.984375 C 25.390625 -23.984375 26.132812 -24.125 26.75 -24.40625 C 27.363281 -24.695312 27.820312 -24.992188 28.125 -25.296875 C 28.4375 -25.609375 28.613281 -25.804688 28.65625 -25.890625 L 28.65625 -19.5 C 28.613281 -19.59375 28.4375 -19.789062 28.125 -20.09375 C 27.820312 -20.40625 27.375 -20.691406 26.78125 -20.953125 C 26.1875 -21.210938 25.453125 -21.34375 24.578125 -21.34375 L 13.171875 -21.34375 L 13.171875 -2.640625 L 23.453125 -2.640625 C 25.429688 -2.640625 27.132812 -3.046875 28.5625 -3.859375 C 29.988281 -4.671875 31.007812 -5.710938 31.625 -6.984375 L 30.4375 0 Z M 5.59375 0 " />
            </g>
        </g>
    </g>
    <g fill="#000000" fill-opacity="1">
        <g transform="translate(118.365321, 59.127433)">
            <g>
                <path
                    d="M 26.484375 -1.125 C 25.347656 -0.726562 24.039062 -0.441406 22.5625 -0.265625 C 21.09375 -0.0859375 19.0625 0 16.46875 0 L 5.59375 0 C 6.164062 -0.132812 6.78125 -0.628906 7.4375 -1.484375 C 8.101562 -2.335938 8.4375 -3.992188 8.4375 -6.453125 L 8.4375 -39.078125 C 8.4375 -41.359375 8.128906 -42.925781 7.515625 -43.78125 C 6.898438 -44.632812 6.285156 -45.148438 5.671875 -45.328125 L 16.46875 -45.328125 C 19.28125 -45.328125 21.421875 -45.207031 22.890625 -44.96875 C 24.367188 -44.726562 25.65625 -44.367188 26.75 -43.890625 C 28.6875 -42.960938 30.179688 -41.660156 31.234375 -39.984375 C 32.285156 -38.316406 32.8125 -36.519531 32.8125 -34.59375 C 32.8125 -31.644531 31.921875 -29.101562 30.140625 -26.96875 C 28.359375 -24.84375 26.019531 -23.472656 23.125 -22.859375 C 25.101562 -22.640625 26.984375 -22.066406 28.765625 -21.140625 C 30.546875 -20.222656 31.992188 -18.972656 33.109375 -17.390625 C 34.234375 -15.804688 34.796875 -14.003906 34.796875 -11.984375 C 34.796875 -9.179688 34.046875 -6.890625 32.546875 -5.109375 C 31.054688 -3.328125 29.035156 -2 26.484375 -1.125 Z M 24.640625 -40.71875 C 23.765625 -41.375 22.820312 -41.867188 21.8125 -42.203125 C 20.800781 -42.535156 19.4375 -42.703125 17.71875 -42.703125 L 13.171875 -42.703125 L 13.171875 -23.984375 L 18.515625 -23.984375 C 20.097656 -23.984375 21.414062 -24.222656 22.46875 -24.703125 C 23.519531 -25.191406 24.441406 -25.832031 25.234375 -26.625 C 26.066406 -27.457031 26.722656 -28.46875 27.203125 -29.65625 C 27.691406 -30.84375 27.9375 -32.050781 27.9375 -33.28125 C 27.9375 -34.769531 27.660156 -36.171875 27.109375 -37.484375 C 26.566406 -38.804688 25.742188 -39.882812 24.640625 -40.71875 Z M 26.03125 -19.4375 C 25.195312 -20.09375 24.160156 -20.570312 22.921875 -20.875 C 21.691406 -21.1875 20.023438 -21.34375 17.921875 -21.34375 L 13.171875 -21.34375 L 13.171875 -2.640625 L 19.4375 -2.640625 C 22.601562 -2.640625 25.070312 -3.382812 26.84375 -4.875 C 28.625 -6.363281 29.515625 -8.734375 29.515625 -11.984375 C 29.515625 -15.015625 28.351562 -17.5 26.03125 -19.4375 Z M 26.03125 -19.4375 " />
            </g>
        </g>
    </g>
    <g fill="#000000" fill-opacity="1">
        <g transform="translate(165.723089, 59.127433)">
            <g />
        </g>
    </g>
    <g fill="#000000" fill-opacity="1">
        <g transform="translate(190.951638, 59.127433)">
            <g>
                <path
                    d="M 35.125 -3.6875 C 30.988281 -1.226562 25.472656 0 18.578125 0 L 5.59375 0 C 5.59375 0.132812 5.859375 0.015625 6.390625 -0.359375 C 6.921875 -0.734375 7.394531 -1.425781 7.8125 -2.4375 C 8.226562 -3.445312 8.4375 -4.921875 8.4375 -6.859375 L 8.4375 -39.265625 C 8.4375 -40.984375 8.226562 -42.289062 7.8125 -43.1875 C 7.394531 -44.09375 6.921875 -44.695312 6.390625 -45 C 5.859375 -45.3125 5.59375 -45.421875 5.59375 -45.328125 L 18.515625 -45.328125 C 25.234375 -45.328125 30.546875 -44.226562 34.453125 -42.03125 C 37.929688 -40.101562 40.613281 -37.488281 42.5 -34.1875 C 44.382812 -30.894531 45.328125 -27.1875 45.328125 -23.0625 C 45.328125 -18.582031 44.4375 -14.703125 42.65625 -11.421875 C 40.882812 -8.148438 38.375 -5.570312 35.125 -3.6875 Z M 32.546875 -39.078125 C 30.617188 -40.347656 28.554688 -41.269531 26.359375 -41.84375 C 24.160156 -42.414062 21.546875 -42.703125 18.515625 -42.703125 L 13.171875 -42.703125 L 13.171875 -2.640625 L 18.515625 -2.640625 C 22.117188 -2.640625 25.070312 -2.945312 27.375 -3.5625 C 29.6875 -4.175781 31.675781 -5.117188 33.34375 -6.390625 C 35.488281 -8.054688 37.144531 -10.238281 38.3125 -12.9375 C 39.476562 -15.644531 40.0625 -18.800781 40.0625 -22.40625 C 40.0625 -26.226562 39.390625 -29.578125 38.046875 -32.453125 C 36.710938 -35.328125 34.878906 -37.535156 32.546875 -39.078125 Z M 32.546875 -39.078125 " />
            </g>
        </g>
    </g>
    <g fill="#000000" fill-opacity="1">
        <g transform="translate(248.320229, 59.127433)">
            <g>
                <path
                    d="M 5.59375 0 C 5.59375 0.132812 5.859375 0.0351562 6.390625 -0.296875 C 6.921875 -0.628906 7.394531 -1.285156 7.8125 -2.265625 C 8.226562 -3.253906 8.4375 -4.695312 8.4375 -6.59375 L 8.4375 -38.9375 C 8.4375 -40.738281 8.226562 -42.109375 7.8125 -43.046875 C 7.394531 -43.992188 6.921875 -44.644531 6.390625 -45 C 5.859375 -45.351562 5.59375 -45.460938 5.59375 -45.328125 L 29.453125 -45.328125 L 29.453125 -38.75 C 28.660156 -41.382812 26.289062 -42.703125 22.34375 -42.703125 L 13.171875 -42.703125 L 13.171875 -23.984375 L 24.515625 -23.984375 C 25.390625 -23.984375 26.132812 -24.125 26.75 -24.40625 C 27.363281 -24.695312 27.820312 -24.992188 28.125 -25.296875 C 28.4375 -25.609375 28.613281 -25.804688 28.65625 -25.890625 L 28.65625 -19.5 C 28.613281 -19.59375 28.4375 -19.789062 28.125 -20.09375 C 27.820312 -20.40625 27.375 -20.691406 26.78125 -20.953125 C 26.1875 -21.210938 25.453125 -21.34375 24.578125 -21.34375 L 13.171875 -21.34375 L 13.171875 -2.640625 L 23.453125 -2.640625 C 25.429688 -2.640625 27.132812 -3.046875 28.5625 -3.859375 C 29.988281 -4.671875 31.007812 -5.710938 31.625 -6.984375 L 30.4375 0 Z M 5.59375 0 " />
            </g>
        </g>
    </g>
    <g fill="#000000" fill-opacity="1">
        <g transform="translate(291.46291, 59.127433)">
            <g>
                <path
                    d="M 35.1875 -41.84375 C 35.1875 -42.71875 34.941406 -43.472656 34.453125 -44.109375 C 33.972656 -44.742188 33.226562 -45.148438 32.21875 -45.328125 L 43.296875 -45.328125 C 42.722656 -45.242188 41.953125 -44.738281 40.984375 -43.8125 C 40.015625 -42.894531 39.003906 -41.179688 37.953125 -38.671875 L 21.28125 1.578125 L 4.34375 -38.875 C 3.382812 -41.207031 2.429688 -42.820312 1.484375 -43.71875 C 0.535156 -44.613281 -0.242188 -45.148438 -0.859375 -45.328125 L 10.140625 -45.328125 C 8.960938 -45.023438 8.375 -44.257812 8.375 -43.03125 C 8.375 -42.363281 8.523438 -41.65625 8.828125 -40.90625 C 9.140625 -40.164062 9.316406 -39.726562 9.359375 -39.59375 L 22.140625 -8.296875 L 34.53125 -38.75 C 34.96875 -39.757812 35.1875 -40.789062 35.1875 -41.84375 Z M 35.1875 -41.84375 " />
            </g>
        </g>
    </g>
    <g fill="#000000" fill-opacity="1">
        <g transform="translate(341.191654, 59.127433)">
            <g>
                <path
                    d="M 5.59375 0 C 5.59375 0.132812 5.859375 0.0351562 6.390625 -0.296875 C 6.921875 -0.628906 7.394531 -1.285156 7.8125 -2.265625 C 8.226562 -3.253906 8.4375 -4.695312 8.4375 -6.59375 L 8.4375 -38.9375 C 8.4375 -40.738281 8.226562 -42.109375 7.8125 -43.046875 C 7.394531 -43.992188 6.921875 -44.644531 6.390625 -45 C 5.859375 -45.351562 5.59375 -45.460938 5.59375 -45.328125 L 29.453125 -45.328125 L 29.453125 -38.75 C 28.660156 -41.382812 26.289062 -42.703125 22.34375 -42.703125 L 13.171875 -42.703125 L 13.171875 -23.984375 L 24.515625 -23.984375 C 25.390625 -23.984375 26.132812 -24.125 26.75 -24.40625 C 27.363281 -24.695312 27.820312 -24.992188 28.125 -25.296875 C 28.4375 -25.609375 28.613281 -25.804688 28.65625 -25.890625 L 28.65625 -19.5 C 28.613281 -19.59375 28.4375 -19.789062 28.125 -20.09375 C 27.820312 -20.40625 27.375 -20.691406 26.78125 -20.953125 C 26.1875 -21.210938 25.453125 -21.34375 24.578125 -21.34375 L 13.171875 -21.34375 L 13.171875 -2.640625 L 23.453125 -2.640625 C 25.429688 -2.640625 27.132812 -3.046875 28.5625 -3.859375 C 29.988281 -4.671875 31.007812 -5.710938 31.625 -6.984375 L 30.4375 0 Z M 5.59375 0 " />
            </g>
        </g>
    </g>
    <g fill="#000000" fill-opacity="1">
        <g transform="translate(384.334335, 59.127433)">
            <g>
                <path
                    d="M 8.4375 -39.203125 C 8.4375 -40.960938 8.226562 -42.289062 7.8125 -43.1875 C 7.394531 -44.09375 6.921875 -44.695312 6.390625 -45 C 5.859375 -45.3125 5.59375 -45.421875 5.59375 -45.328125 L 16.078125 -45.328125 C 16.078125 -45.421875 15.8125 -45.3125 15.28125 -45 C 14.757812 -44.695312 14.273438 -44.09375 13.828125 -43.1875 C 13.390625 -42.289062 13.171875 -40.960938 13.171875 -39.203125 L 13.171875 -2.640625 L 23.984375 -2.640625 C 25.960938 -2.640625 27.664062 -3.046875 29.09375 -3.859375 C 30.519531 -4.671875 31.539062 -5.710938 32.15625 -6.984375 L 30.96875 0 L 5.59375 0 C 5.59375 0.132812 5.859375 0.0351562 6.390625 -0.296875 C 6.921875 -0.628906 7.394531 -1.285156 7.8125 -2.265625 C 8.226562 -3.253906 8.4375 -4.695312 8.4375 -6.59375 Z M 8.4375 -39.203125 " />
            </g>
        </g>
    </g>
    <g fill="#000000" fill-opacity="1">
        <g transform="translate(426.028053, 59.127433)">
            <g>
                <path
                    d="M 4.21875 -22.140625 C 4.21875 -26.796875 5.21875 -30.945312 7.21875 -34.59375 C 9.21875 -38.238281 12.023438 -41.070312 15.640625 -43.09375 C 19.265625 -45.113281 23.453125 -46.125 28.203125 -46.125 C 32.148438 -46.125 35.847656 -45.253906 39.296875 -43.515625 C 42.742188 -41.785156 45.507812 -39.179688 47.59375 -35.703125 C 49.6875 -32.234375 50.734375 -28.0625 50.734375 -23.1875 C 50.734375 -18.53125 49.734375 -14.378906 47.734375 -10.734375 C 45.734375 -7.085938 42.921875 -4.253906 39.296875 -2.234375 C 35.679688 -0.210938 31.5 0.796875 26.75 0.796875 C 22.800781 0.796875 19.101562 -0.0703125 15.65625 -1.8125 C 12.207031 -3.550781 9.4375 -6.15625 7.34375 -9.625 C 5.257812 -13.09375 4.21875 -17.265625 4.21875 -22.140625 Z M 45.46875 -22.203125 C 45.46875 -26.203125 44.640625 -29.816406 42.984375 -33.046875 C 41.335938 -36.273438 39.078125 -38.800781 36.203125 -40.625 C 33.328125 -42.445312 30.085938 -43.359375 26.484375 -43.359375 C 23.191406 -43.359375 20.257812 -42.519531 17.6875 -40.84375 C 15.125 -39.175781 13.113281 -36.816406 11.65625 -33.765625 C 10.207031 -30.710938 9.484375 -27.164062 9.484375 -23.125 C 9.484375 -19.125 10.304688 -15.507812 11.953125 -12.28125 C 13.609375 -9.0625 15.875 -6.539062 18.75 -4.71875 C 21.625 -2.894531 24.863281 -1.984375 28.46875 -1.984375 C 31.757812 -1.984375 34.6875 -2.816406 37.25 -4.484375 C 39.820312 -6.148438 41.832031 -8.507812 43.28125 -11.5625 C 44.738281 -14.613281 45.46875 -18.160156 45.46875 -22.203125 Z M 45.46875 -22.203125 " />
            </g>
        </g>
    </g>
    <g fill="#000000" fill-opacity="1">
        <g transform="translate(488.270312, 59.127433)">
            <g>
                <path
                    d="M 34 -33.078125 C 34 -30.523438 33.394531 -28.25 32.1875 -26.25 C 30.976562 -24.257812 29.253906 -22.691406 27.015625 -21.546875 C 24.773438 -20.398438 22.140625 -19.828125 19.109375 -19.828125 C 17.265625 -19.828125 15.285156 -20.023438 13.171875 -20.421875 L 13.171875 -6.0625 C 13.171875 -4.351562 13.390625 -3.046875 13.828125 -2.140625 C 14.273438 -1.242188 14.757812 -0.640625 15.28125 -0.328125 C 15.8125 -0.0234375 16.078125 0.0820312 16.078125 0 L 5.59375 0 C 5.59375 0.0820312 5.859375 -0.0234375 6.390625 -0.328125 C 6.921875 -0.640625 7.394531 -1.234375 7.8125 -2.109375 C 8.226562 -2.984375 8.4375 -4.300781 8.4375 -6.0625 L 8.4375 -39.078125 C 8.4375 -40.828125 8.226562 -42.160156 7.8125 -43.078125 C 7.394531 -44.003906 6.921875 -44.632812 6.390625 -44.96875 C 5.859375 -45.300781 5.59375 -45.421875 5.59375 -45.328125 L 18.515625 -45.328125 C 20.753906 -45.328125 22.597656 -45.179688 24.046875 -44.890625 C 25.492188 -44.609375 26.769531 -44.1875 27.875 -43.625 C 29.851562 -42.613281 31.367188 -41.148438 32.421875 -39.234375 C 33.472656 -37.328125 34 -35.273438 34 -33.078125 Z M 28.921875 -32.21875 C 28.921875 -35.34375 27.953125 -37.867188 26.015625 -39.796875 C 24.085938 -41.734375 21.519531 -42.703125 18.3125 -42.703125 L 13.171875 -42.703125 L 13.171875 -23 C 15.066406 -22.644531 17.046875 -22.46875 19.109375 -22.46875 C 22.179688 -22.46875 24.582031 -23.359375 26.3125 -25.140625 C 28.050781 -26.921875 28.921875 -29.28125 28.921875 -32.21875 Z M 28.921875 -32.21875 " />
            </g>
        </g>
    </g>
    <g fill="#000000" fill-opacity="1">
        <g transform="translate(532.730156, 59.127433)">
            <g>
                <path
                    d="M 43.75 0 C 44.28125 -0.0820312 44.851562 -0.550781 45.46875 -1.40625 C 46.082031 -2.269531 46.390625 -3.863281 46.390625 -6.1875 L 46.390625 -39.140625 L 29.125 0.71875 L 11.59375 -39.078125 L 11.59375 -6.515625 C 11.59375 -4.148438 11.976562 -2.492188 12.75 -1.546875 C 13.519531 -0.597656 14.210938 -0.0820312 14.828125 0 L 5.078125 0 C 5.734375 -0.0820312 6.457031 -0.570312 7.25 -1.46875 C 8.039062 -2.375 8.4375 -4.054688 8.4375 -6.515625 L 8.4375 -39.53125 C 8.4375 -41.644531 8.0625 -43.09375 7.3125 -43.875 C 6.5625 -44.664062 5.816406 -45.148438 5.078125 -45.328125 L 13.96875 -45.328125 L 30.109375 -8.5 L 45.984375 -45.328125 L 53.96875 -45.328125 C 53.394531 -45.242188 52.773438 -44.785156 52.109375 -43.953125 C 51.453125 -43.117188 51.125 -41.582031 51.125 -39.34375 L 51.125 -5.9375 C 51.125 -3.738281 51.453125 -2.21875 52.109375 -1.375 C 52.773438 -0.539062 53.394531 -0.0820312 53.96875 0 Z M 43.75 0 " />
            </g>
        </g>
    </g>
    <g fill="#000000" fill-opacity="1">
        <g transform="translate(599.582705, 59.127433)">
            <g>
                <path
                    d="M 5.59375 0 C 5.59375 0.132812 5.859375 0.0351562 6.390625 -0.296875 C 6.921875 -0.628906 7.394531 -1.285156 7.8125 -2.265625 C 8.226562 -3.253906 8.4375 -4.695312 8.4375 -6.59375 L 8.4375 -38.9375 C 8.4375 -40.738281 8.226562 -42.109375 7.8125 -43.046875 C 7.394531 -43.992188 6.921875 -44.644531 6.390625 -45 C 5.859375 -45.351562 5.59375 -45.460938 5.59375 -45.328125 L 29.453125 -45.328125 L 29.453125 -38.75 C 28.660156 -41.382812 26.289062 -42.703125 22.34375 -42.703125 L 13.171875 -42.703125 L 13.171875 -23.984375 L 24.515625 -23.984375 C 25.390625 -23.984375 26.132812 -24.125 26.75 -24.40625 C 27.363281 -24.695312 27.820312 -24.992188 28.125 -25.296875 C 28.4375 -25.609375 28.613281 -25.804688 28.65625 -25.890625 L 28.65625 -19.5 C 28.613281 -19.59375 28.4375 -19.789062 28.125 -20.09375 C 27.820312 -20.40625 27.375 -20.691406 26.78125 -20.953125 C 26.1875 -21.210938 25.453125 -21.34375 24.578125 -21.34375 L 13.171875 -21.34375 L 13.171875 -2.640625 L 23.453125 -2.640625 C 25.429688 -2.640625 27.132812 -3.046875 28.5625 -3.859375 C 29.988281 -4.671875 31.007812 -5.710938 31.625 -6.984375 L 30.4375 0 Z M 5.59375 0 " />
            </g>
        </g>
    </g>
    <g fill="#000000" fill-opacity="1">
        <g transform="translate(642.725387, 59.127433)">
            <g>
                <path
                    d="M 48.03125 -45.328125 C 47.414062 -45.203125 46.8125 -44.707031 46.21875 -43.84375 C 45.625 -42.988281 45.328125 -41.488281 45.328125 -39.34375 L 45.328125 1.84375 L 11.59375 -37.484375 L 11.59375 -5.9375 C 11.59375 -3.820312 11.96875 -2.335938 12.71875 -1.484375 C 13.46875 -0.628906 14.191406 -0.132812 14.890625 0 L 5.59375 0 C 6.207031 -0.132812 6.832031 -0.628906 7.46875 -1.484375 C 8.113281 -2.335938 8.4375 -3.84375 8.4375 -6 L 8.4375 -38.9375 C 8.4375 -40.4375 7.929688 -41.800781 6.921875 -43.03125 C 5.910156 -44.257812 4.632812 -45.023438 3.09375 -45.328125 L 11.265625 -45.328125 L 42.171875 -9.296875 L 42.171875 -39.34375 C 42.171875 -42.71875 41.03125 -44.710938 38.75 -45.328125 Z M 48.03125 -45.328125 " />
            </g>
        </g>
    </g>
    <g fill="#000000" fill-opacity="1">
        <g transform="translate(703.782144, 59.127433)">
            <g>
                <path
                    d="M 9.75 -42.703125 C 7.820312 -42.703125 6.21875 -42.328125 4.9375 -41.578125 C 3.664062 -40.828125 2.742188 -39.882812 2.171875 -38.75 L 3.09375 -45.328125 L 34.328125 -45.328125 L 35.25 -38.75 C 34.675781 -39.882812 33.753906 -40.828125 32.484375 -41.578125 C 31.210938 -42.328125 29.609375 -42.703125 27.671875 -42.703125 L 21.078125 -42.703125 L 21.078125 -6.125 C 21.078125 -4.375 21.296875 -3.035156 21.734375 -2.109375 C 22.179688 -1.179688 22.664062 -0.5625 23.1875 -0.25 C 23.71875 0.0507812 23.984375 0.132812 23.984375 0 L 13.5 0 C 13.5 0.132812 13.765625 0.0507812 14.296875 -0.25 C 14.828125 -0.5625 15.300781 -1.164062 15.71875 -2.0625 C 16.132812 -2.96875 16.34375 -4.320312 16.34375 -6.125 L 16.34375 -42.703125 Z M 9.75 -42.703125 " />
            </g>
        </g>
    </g>
    <g fill="#ffffff" fill-opacity="1">
        <g transform="translate(6.731701, 56.954294)">
            <g>
                <path
                    d="M 55.21875 -38.75 C 55.738281 -40.320312 56 -41.550781 56 -42.4375 C 56 -44.238281 55.210938 -45.203125 53.640625 -45.328125 L 63.84375 -45.328125 C 63.1875 -45.203125 62.34375 -44.695312 61.3125 -43.8125 C 60.28125 -42.9375 59.320312 -41.222656 58.4375 -38.671875 L 44.21875 1.578125 L 31.5 -34.921875 L 18.390625 1.578125 L 5.40625 -38.875 C 4.257812 -42.5625 2.585938 -44.710938 0.390625 -45.328125 L 11.328125 -45.328125 C 10.097656 -45.109375 9.484375 -44.382812 9.484375 -43.15625 C 9.484375 -42.539062 9.75 -41.441406 10.28125 -39.859375 L 11 -37.5625 L 19.3125 -10.078125 L 32.6875 -46.578125 L 45.40625 -10.34375 Z M 55.21875 -38.75 " />
            </g>
        </g>
    </g>
    <g fill="#ffffff" fill-opacity="1">
        <g transform="translate(78.326203, 56.954294)">
            <g>
                <path
                    d="M 5.59375 0 C 5.59375 0.132812 5.859375 0.0351562 6.390625 -0.296875 C 6.921875 -0.628906 7.394531 -1.285156 7.8125 -2.265625 C 8.226562 -3.253906 8.4375 -4.695312 8.4375 -6.59375 L 8.4375 -38.9375 C 8.4375 -40.738281 8.226562 -42.109375 7.8125 -43.046875 C 7.394531 -43.992188 6.921875 -44.644531 6.390625 -45 C 5.859375 -45.351562 5.59375 -45.460938 5.59375 -45.328125 L 29.453125 -45.328125 L 29.453125 -38.75 C 28.660156 -41.382812 26.289062 -42.703125 22.34375 -42.703125 L 13.171875 -42.703125 L 13.171875 -23.984375 L 24.515625 -23.984375 C 25.390625 -23.984375 26.132812 -24.125 26.75 -24.40625 C 27.363281 -24.695312 27.820312 -24.992188 28.125 -25.296875 C 28.4375 -25.609375 28.613281 -25.804688 28.65625 -25.890625 L 28.65625 -19.5 C 28.613281 -19.59375 28.4375 -19.789062 28.125 -20.09375 C 27.820312 -20.40625 27.375 -20.691406 26.78125 -20.953125 C 26.1875 -21.210938 25.453125 -21.34375 24.578125 -21.34375 L 13.171875 -21.34375 L 13.171875 -2.640625 L 23.453125 -2.640625 C 25.429688 -2.640625 27.132812 -3.046875 28.5625 -3.859375 C 29.988281 -4.671875 31.007812 -5.710938 31.625 -6.984375 L 30.4375 0 Z M 5.59375 0 " />
            </g>
        </g>
    </g>
    <g fill="#ffffff" fill-opacity="1">
        <g transform="translate(121.468885, 56.954294)">
            <g>
                <path
                    d="M 26.484375 -1.125 C 25.347656 -0.726562 24.039062 -0.441406 22.5625 -0.265625 C 21.09375 -0.0859375 19.0625 0 16.46875 0 L 5.59375 0 C 6.164062 -0.132812 6.78125 -0.628906 7.4375 -1.484375 C 8.101562 -2.335938 8.4375 -3.992188 8.4375 -6.453125 L 8.4375 -39.078125 C 8.4375 -41.359375 8.128906 -42.925781 7.515625 -43.78125 C 6.898438 -44.632812 6.285156 -45.148438 5.671875 -45.328125 L 16.46875 -45.328125 C 19.28125 -45.328125 21.421875 -45.207031 22.890625 -44.96875 C 24.367188 -44.726562 25.65625 -44.367188 26.75 -43.890625 C 28.6875 -42.960938 30.179688 -41.660156 31.234375 -39.984375 C 32.285156 -38.316406 32.8125 -36.519531 32.8125 -34.59375 C 32.8125 -31.644531 31.921875 -29.101562 30.140625 -26.96875 C 28.359375 -24.84375 26.019531 -23.472656 23.125 -22.859375 C 25.101562 -22.640625 26.984375 -22.066406 28.765625 -21.140625 C 30.546875 -20.222656 31.992188 -18.972656 33.109375 -17.390625 C 34.234375 -15.804688 34.796875 -14.003906 34.796875 -11.984375 C 34.796875 -9.179688 34.046875 -6.890625 32.546875 -5.109375 C 31.054688 -3.328125 29.035156 -2 26.484375 -1.125 Z M 24.640625 -40.71875 C 23.765625 -41.375 22.820312 -41.867188 21.8125 -42.203125 C 20.800781 -42.535156 19.4375 -42.703125 17.71875 -42.703125 L 13.171875 -42.703125 L 13.171875 -23.984375 L 18.515625 -23.984375 C 20.097656 -23.984375 21.414062 -24.222656 22.46875 -24.703125 C 23.519531 -25.191406 24.441406 -25.832031 25.234375 -26.625 C 26.066406 -27.457031 26.722656 -28.46875 27.203125 -29.65625 C 27.691406 -30.84375 27.9375 -32.050781 27.9375 -33.28125 C 27.9375 -34.769531 27.660156 -36.171875 27.109375 -37.484375 C 26.566406 -38.804688 25.742188 -39.882812 24.640625 -40.71875 Z M 26.03125 -19.4375 C 25.195312 -20.09375 24.160156 -20.570312 22.921875 -20.875 C 21.691406 -21.1875 20.023438 -21.34375 17.921875 -21.34375 L 13.171875 -21.34375 L 13.171875 -2.640625 L 19.4375 -2.640625 C 22.601562 -2.640625 25.070312 -3.382812 26.84375 -4.875 C 28.625 -6.363281 29.515625 -8.734375 29.515625 -11.984375 C 29.515625 -15.015625 28.351562 -17.5 26.03125 -19.4375 Z M 26.03125 -19.4375 " />
            </g>
        </g>
    </g>
    <g fill="#ffffff" fill-opacity="1">
        <g transform="translate(168.826653, 56.954294)">
            <g />
        </g>
    </g>
    <g fill="#ffffff" fill-opacity="1">
        <g transform="translate(194.055202, 56.954294)">
            <g>
                <path
                    d="M 35.125 -3.6875 C 30.988281 -1.226562 25.472656 0 18.578125 0 L 5.59375 0 C 5.59375 0.132812 5.859375 0.015625 6.390625 -0.359375 C 6.921875 -0.734375 7.394531 -1.425781 7.8125 -2.4375 C 8.226562 -3.445312 8.4375 -4.921875 8.4375 -6.859375 L 8.4375 -39.265625 C 8.4375 -40.984375 8.226562 -42.289062 7.8125 -43.1875 C 7.394531 -44.09375 6.921875 -44.695312 6.390625 -45 C 5.859375 -45.3125 5.59375 -45.421875 5.59375 -45.328125 L 18.515625 -45.328125 C 25.234375 -45.328125 30.546875 -44.226562 34.453125 -42.03125 C 37.929688 -40.101562 40.613281 -37.488281 42.5 -34.1875 C 44.382812 -30.894531 45.328125 -27.1875 45.328125 -23.0625 C 45.328125 -18.582031 44.4375 -14.703125 42.65625 -11.421875 C 40.882812 -8.148438 38.375 -5.570312 35.125 -3.6875 Z M 32.546875 -39.078125 C 30.617188 -40.347656 28.554688 -41.269531 26.359375 -41.84375 C 24.160156 -42.414062 21.546875 -42.703125 18.515625 -42.703125 L 13.171875 -42.703125 L 13.171875 -2.640625 L 18.515625 -2.640625 C 22.117188 -2.640625 25.070312 -2.945312 27.375 -3.5625 C 29.6875 -4.175781 31.675781 -5.117188 33.34375 -6.390625 C 35.488281 -8.054688 37.144531 -10.238281 38.3125 -12.9375 C 39.476562 -15.644531 40.0625 -18.800781 40.0625 -22.40625 C 40.0625 -26.226562 39.390625 -29.578125 38.046875 -32.453125 C 36.710938 -35.328125 34.878906 -37.535156 32.546875 -39.078125 Z M 32.546875 -39.078125 " />
            </g>
        </g>
    </g>
    <g fill="#ffffff" fill-opacity="1">
        <g transform="translate(251.423793, 56.954294)">
            <g>
                <path
                    d="M 5.59375 0 C 5.59375 0.132812 5.859375 0.0351562 6.390625 -0.296875 C 6.921875 -0.628906 7.394531 -1.285156 7.8125 -2.265625 C 8.226562 -3.253906 8.4375 -4.695312 8.4375 -6.59375 L 8.4375 -38.9375 C 8.4375 -40.738281 8.226562 -42.109375 7.8125 -43.046875 C 7.394531 -43.992188 6.921875 -44.644531 6.390625 -45 C 5.859375 -45.351562 5.59375 -45.460938 5.59375 -45.328125 L 29.453125 -45.328125 L 29.453125 -38.75 C 28.660156 -41.382812 26.289062 -42.703125 22.34375 -42.703125 L 13.171875 -42.703125 L 13.171875 -23.984375 L 24.515625 -23.984375 C 25.390625 -23.984375 26.132812 -24.125 26.75 -24.40625 C 27.363281 -24.695312 27.820312 -24.992188 28.125 -25.296875 C 28.4375 -25.609375 28.613281 -25.804688 28.65625 -25.890625 L 28.65625 -19.5 C 28.613281 -19.59375 28.4375 -19.789062 28.125 -20.09375 C 27.820312 -20.40625 27.375 -20.691406 26.78125 -20.953125 C 26.1875 -21.210938 25.453125 -21.34375 24.578125 -21.34375 L 13.171875 -21.34375 L 13.171875 -2.640625 L 23.453125 -2.640625 C 25.429688 -2.640625 27.132812 -3.046875 28.5625 -3.859375 C 29.988281 -4.671875 31.007812 -5.710938 31.625 -6.984375 L 30.4375 0 Z M 5.59375 0 " />
            </g>
        </g>
    </g>
    <g fill="#ffffff" fill-opacity="1">
        <g transform="translate(294.566474, 56.954294)">
            <g>
                <path
                    d="M 35.1875 -41.84375 C 35.1875 -42.71875 34.941406 -43.472656 34.453125 -44.109375 C 33.972656 -44.742188 33.226562 -45.148438 32.21875 -45.328125 L 43.296875 -45.328125 C 42.722656 -45.242188 41.953125 -44.738281 40.984375 -43.8125 C 40.015625 -42.894531 39.003906 -41.179688 37.953125 -38.671875 L 21.28125 1.578125 L 4.34375 -38.875 C 3.382812 -41.207031 2.429688 -42.820312 1.484375 -43.71875 C 0.535156 -44.613281 -0.242188 -45.148438 -0.859375 -45.328125 L 10.140625 -45.328125 C 8.960938 -45.023438 8.375 -44.257812 8.375 -43.03125 C 8.375 -42.363281 8.523438 -41.65625 8.828125 -40.90625 C 9.140625 -40.164062 9.316406 -39.726562 9.359375 -39.59375 L 22.140625 -8.296875 L 34.53125 -38.75 C 34.96875 -39.757812 35.1875 -40.789062 35.1875 -41.84375 Z M 35.1875 -41.84375 " />
            </g>
        </g>
    </g>
    <g fill="#ffffff" fill-opacity="1">
        <g transform="translate(344.295218, 56.954294)">
            <g>
                <path
                    d="M 5.59375 0 C 5.59375 0.132812 5.859375 0.0351562 6.390625 -0.296875 C 6.921875 -0.628906 7.394531 -1.285156 7.8125 -2.265625 C 8.226562 -3.253906 8.4375 -4.695312 8.4375 -6.59375 L 8.4375 -38.9375 C 8.4375 -40.738281 8.226562 -42.109375 7.8125 -43.046875 C 7.394531 -43.992188 6.921875 -44.644531 6.390625 -45 C 5.859375 -45.351562 5.59375 -45.460938 5.59375 -45.328125 L 29.453125 -45.328125 L 29.453125 -38.75 C 28.660156 -41.382812 26.289062 -42.703125 22.34375 -42.703125 L 13.171875 -42.703125 L 13.171875 -23.984375 L 24.515625 -23.984375 C 25.390625 -23.984375 26.132812 -24.125 26.75 -24.40625 C 27.363281 -24.695312 27.820312 -24.992188 28.125 -25.296875 C 28.4375 -25.609375 28.613281 -25.804688 28.65625 -25.890625 L 28.65625 -19.5 C 28.613281 -19.59375 28.4375 -19.789062 28.125 -20.09375 C 27.820312 -20.40625 27.375 -20.691406 26.78125 -20.953125 C 26.1875 -21.210938 25.453125 -21.34375 24.578125 -21.34375 L 13.171875 -21.34375 L 13.171875 -2.640625 L 23.453125 -2.640625 C 25.429688 -2.640625 27.132812 -3.046875 28.5625 -3.859375 C 29.988281 -4.671875 31.007812 -5.710938 31.625 -6.984375 L 30.4375 0 Z M 5.59375 0 " />
            </g>
        </g>
    </g>
    <g fill="#ffffff" fill-opacity="1">
        <g transform="translate(387.437899, 56.954294)">
            <g>
                <path
                    d="M 8.4375 -39.203125 C 8.4375 -40.960938 8.226562 -42.289062 7.8125 -43.1875 C 7.394531 -44.09375 6.921875 -44.695312 6.390625 -45 C 5.859375 -45.3125 5.59375 -45.421875 5.59375 -45.328125 L 16.078125 -45.328125 C 16.078125 -45.421875 15.8125 -45.3125 15.28125 -45 C 14.757812 -44.695312 14.273438 -44.09375 13.828125 -43.1875 C 13.390625 -42.289062 13.171875 -40.960938 13.171875 -39.203125 L 13.171875 -2.640625 L 23.984375 -2.640625 C 25.960938 -2.640625 27.664062 -3.046875 29.09375 -3.859375 C 30.519531 -4.671875 31.539062 -5.710938 32.15625 -6.984375 L 30.96875 0 L 5.59375 0 C 5.59375 0.132812 5.859375 0.0351562 6.390625 -0.296875 C 6.921875 -0.628906 7.394531 -1.285156 7.8125 -2.265625 C 8.226562 -3.253906 8.4375 -4.695312 8.4375 -6.59375 Z M 8.4375 -39.203125 " />
            </g>
        </g>
    </g>
    <g fill="#ffffff" fill-opacity="1">
        <g transform="translate(429.131617, 56.954294)">
            <g>
                <path
                    d="M 4.21875 -22.140625 C 4.21875 -26.796875 5.21875 -30.945312 7.21875 -34.59375 C 9.21875 -38.238281 12.023438 -41.070312 15.640625 -43.09375 C 19.265625 -45.113281 23.453125 -46.125 28.203125 -46.125 C 32.148438 -46.125 35.847656 -45.253906 39.296875 -43.515625 C 42.742188 -41.785156 45.507812 -39.179688 47.59375 -35.703125 C 49.6875 -32.234375 50.734375 -28.0625 50.734375 -23.1875 C 50.734375 -18.53125 49.734375 -14.378906 47.734375 -10.734375 C 45.734375 -7.085938 42.921875 -4.253906 39.296875 -2.234375 C 35.679688 -0.210938 31.5 0.796875 26.75 0.796875 C 22.800781 0.796875 19.101562 -0.0703125 15.65625 -1.8125 C 12.207031 -3.550781 9.4375 -6.15625 7.34375 -9.625 C 5.257812 -13.09375 4.21875 -17.265625 4.21875 -22.140625 Z M 45.46875 -22.203125 C 45.46875 -26.203125 44.640625 -29.816406 42.984375 -33.046875 C 41.335938 -36.273438 39.078125 -38.800781 36.203125 -40.625 C 33.328125 -42.445312 30.085938 -43.359375 26.484375 -43.359375 C 23.191406 -43.359375 20.257812 -42.519531 17.6875 -40.84375 C 15.125 -39.175781 13.113281 -36.816406 11.65625 -33.765625 C 10.207031 -30.710938 9.484375 -27.164062 9.484375 -23.125 C 9.484375 -19.125 10.304688 -15.507812 11.953125 -12.28125 C 13.609375 -9.0625 15.875 -6.539062 18.75 -4.71875 C 21.625 -2.894531 24.863281 -1.984375 28.46875 -1.984375 C 31.757812 -1.984375 34.6875 -2.816406 37.25 -4.484375 C 39.820312 -6.148438 41.832031 -8.507812 43.28125 -11.5625 C 44.738281 -14.613281 45.46875 -18.160156 45.46875 -22.203125 Z M 45.46875 -22.203125 " />
            </g>
        </g>
    </g>
    <g fill="#ffffff" fill-opacity="1">
        <g transform="translate(491.373876, 56.954294)">
            <g>
                <path
                    d="M 34 -33.078125 C 34 -30.523438 33.394531 -28.25 32.1875 -26.25 C 30.976562 -24.257812 29.253906 -22.691406 27.015625 -21.546875 C 24.773438 -20.398438 22.140625 -19.828125 19.109375 -19.828125 C 17.265625 -19.828125 15.285156 -20.023438 13.171875 -20.421875 L 13.171875 -6.0625 C 13.171875 -4.351562 13.390625 -3.046875 13.828125 -2.140625 C 14.273438 -1.242188 14.757812 -0.640625 15.28125 -0.328125 C 15.8125 -0.0234375 16.078125 0.0820312 16.078125 0 L 5.59375 0 C 5.59375 0.0820312 5.859375 -0.0234375 6.390625 -0.328125 C 6.921875 -0.640625 7.394531 -1.234375 7.8125 -2.109375 C 8.226562 -2.984375 8.4375 -4.300781 8.4375 -6.0625 L 8.4375 -39.078125 C 8.4375 -40.828125 8.226562 -42.160156 7.8125 -43.078125 C 7.394531 -44.003906 6.921875 -44.632812 6.390625 -44.96875 C 5.859375 -45.300781 5.59375 -45.421875 5.59375 -45.328125 L 18.515625 -45.328125 C 20.753906 -45.328125 22.597656 -45.179688 24.046875 -44.890625 C 25.492188 -44.609375 26.769531 -44.1875 27.875 -43.625 C 29.851562 -42.613281 31.367188 -41.148438 32.421875 -39.234375 C 33.472656 -37.328125 34 -35.273438 34 -33.078125 Z M 28.921875 -32.21875 C 28.921875 -35.34375 27.953125 -37.867188 26.015625 -39.796875 C 24.085938 -41.734375 21.519531 -42.703125 18.3125 -42.703125 L 13.171875 -42.703125 L 13.171875 -23 C 15.066406 -22.644531 17.046875 -22.46875 19.109375 -22.46875 C 22.179688 -22.46875 24.582031 -23.359375 26.3125 -25.140625 C 28.050781 -26.921875 28.921875 -29.28125 28.921875 -32.21875 Z M 28.921875 -32.21875 " />
            </g>
        </g>
    </g>
    <g fill="#ffffff" fill-opacity="1">
        <g transform="translate(535.833719, 56.954294)">
            <g>
                <path
                    d="M 43.75 0 C 44.28125 -0.0820312 44.851562 -0.550781 45.46875 -1.40625 C 46.082031 -2.269531 46.390625 -3.863281 46.390625 -6.1875 L 46.390625 -39.140625 L 29.125 0.71875 L 11.59375 -39.078125 L 11.59375 -6.515625 C 11.59375 -4.148438 11.976562 -2.492188 12.75 -1.546875 C 13.519531 -0.597656 14.210938 -0.0820312 14.828125 0 L 5.078125 0 C 5.734375 -0.0820312 6.457031 -0.570312 7.25 -1.46875 C 8.039062 -2.375 8.4375 -4.054688 8.4375 -6.515625 L 8.4375 -39.53125 C 8.4375 -41.644531 8.0625 -43.09375 7.3125 -43.875 C 6.5625 -44.664062 5.816406 -45.148438 5.078125 -45.328125 L 13.96875 -45.328125 L 30.109375 -8.5 L 45.984375 -45.328125 L 53.96875 -45.328125 C 53.394531 -45.242188 52.773438 -44.785156 52.109375 -43.953125 C 51.453125 -43.117188 51.125 -41.582031 51.125 -39.34375 L 51.125 -5.9375 C 51.125 -3.738281 51.453125 -2.21875 52.109375 -1.375 C 52.773438 -0.539062 53.394531 -0.0820312 53.96875 0 Z M 43.75 0 " />
            </g>
        </g>
    </g>
    <g fill="#ffffff" fill-opacity="1">
        <g transform="translate(602.686269, 56.954294)">
            <g>
                <path
                    d="M 5.59375 0 C 5.59375 0.132812 5.859375 0.0351562 6.390625 -0.296875 C 6.921875 -0.628906 7.394531 -1.285156 7.8125 -2.265625 C 8.226562 -3.253906 8.4375 -4.695312 8.4375 -6.59375 L 8.4375 -38.9375 C 8.4375 -40.738281 8.226562 -42.109375 7.8125 -43.046875 C 7.394531 -43.992188 6.921875 -44.644531 6.390625 -45 C 5.859375 -45.351562 5.59375 -45.460938 5.59375 -45.328125 L 29.453125 -45.328125 L 29.453125 -38.75 C 28.660156 -41.382812 26.289062 -42.703125 22.34375 -42.703125 L 13.171875 -42.703125 L 13.171875 -23.984375 L 24.515625 -23.984375 C 25.390625 -23.984375 26.132812 -24.125 26.75 -24.40625 C 27.363281 -24.695312 27.820312 -24.992188 28.125 -25.296875 C 28.4375 -25.609375 28.613281 -25.804688 28.65625 -25.890625 L 28.65625 -19.5 C 28.613281 -19.59375 28.4375 -19.789062 28.125 -20.09375 C 27.820312 -20.40625 27.375 -20.691406 26.78125 -20.953125 C 26.1875 -21.210938 25.453125 -21.34375 24.578125 -21.34375 L 13.171875 -21.34375 L 13.171875 -2.640625 L 23.453125 -2.640625 C 25.429688 -2.640625 27.132812 -3.046875 28.5625 -3.859375 C 29.988281 -4.671875 31.007812 -5.710938 31.625 -6.984375 L 30.4375 0 Z M 5.59375 0 " />
            </g>
        </g>
    </g>
    <g fill="#ffffff" fill-opacity="1">
        <g transform="translate(645.828951, 56.954294)">
            <g>
                <path
                    d="M 48.03125 -45.328125 C 47.414062 -45.203125 46.8125 -44.707031 46.21875 -43.84375 C 45.625 -42.988281 45.328125 -41.488281 45.328125 -39.34375 L 45.328125 1.84375 L 11.59375 -37.484375 L 11.59375 -5.9375 C 11.59375 -3.820312 11.96875 -2.335938 12.71875 -1.484375 C 13.46875 -0.628906 14.191406 -0.132812 14.890625 0 L 5.59375 0 C 6.207031 -0.132812 6.832031 -0.628906 7.46875 -1.484375 C 8.113281 -2.335938 8.4375 -3.84375 8.4375 -6 L 8.4375 -38.9375 C 8.4375 -40.4375 7.929688 -41.800781 6.921875 -43.03125 C 5.910156 -44.257812 4.632812 -45.023438 3.09375 -45.328125 L 11.265625 -45.328125 L 42.171875 -9.296875 L 42.171875 -39.34375 C 42.171875 -42.71875 41.03125 -44.710938 38.75 -45.328125 Z M 48.03125 -45.328125 " />
            </g>
        </g>
    </g>
    <g fill="#ffffff" fill-opacity="1">
        <g transform="translate(706.885708, 56.954294)">
            <g>
                <path
                    d="M 9.75 -42.703125 C 7.820312 -42.703125 6.21875 -42.328125 4.9375 -41.578125 C 3.664062 -40.828125 2.742188 -39.882812 2.171875 -38.75 L 3.09375 -45.328125 L 34.328125 -45.328125 L 35.25 -38.75 C 34.675781 -39.882812 33.753906 -40.828125 32.484375 -41.578125 C 31.210938 -42.328125 29.609375 -42.703125 27.671875 -42.703125 L 21.078125 -42.703125 L 21.078125 -6.125 C 21.078125 -4.375 21.296875 -3.035156 21.734375 -2.109375 C 22.179688 -1.179688 22.664062 -0.5625 23.1875 -0.25 C 23.71875 0.0507812 23.984375 0.132812 23.984375 0 L 13.5 0 C 13.5 0.132812 13.765625 0.0507812 14.296875 -0.25 C 14.828125 -0.5625 15.300781 -1.164062 15.71875 -2.0625 C 16.132812 -2.96875 16.34375 -4.320312 16.34375 -6.125 L 16.34375 -42.703125 Z M 9.75 -42.703125 " />
            </g>
        </g>
    </g>
</svg>