<svg xmlns="http://www.w3.org/2000/svg" xmlns:xlink="http://www.w3.org/1999/xlink" width="1000" zoomAndPan="magnify"
    viewBox="0 0 750 149.999998" height="200" preserveAspectRatio="xMidYMid meet" version="1.0">
    <defs>
        <g />
    </defs>
    <g fill="#000000" fill-opacity="1">
        <g transform="translate(2.464405, 140.648647)">
            <g>
                <path
                    d="M 23.5 -109.234375 C 23.5 -114.128906 22.914062 -117.828125 21.75 -120.328125 C 20.59375 -122.835938 19.28125 -124.519531 17.8125 -125.375 C 16.34375 -126.238281 15.609375 -126.546875 15.609375 -126.296875 L 44.796875 -126.296875 C 44.796875 -126.546875 44.0625 -126.238281 42.59375 -125.375 C 41.125 -124.519531 39.773438 -122.835938 38.546875 -120.328125 C 37.328125 -117.828125 36.71875 -114.128906 36.71875 -109.234375 L 36.71875 -7.34375 L 66.828125 -7.34375 C 72.328125 -7.34375 77.066406 -8.472656 81.046875 -10.734375 C 85.023438 -13.003906 87.875 -15.910156 89.59375 -19.453125 L 86.28125 0 L 15.609375 0 C 15.609375 0.363281 16.34375 0.0859375 17.8125 -0.828125 C 19.28125 -1.742188 20.59375 -3.578125 21.75 -6.328125 C 22.914062 -9.085938 23.5 -13.097656 23.5 -18.359375 Z M 23.5 -109.234375 " />
            </g>
        </g>
    </g>
    <g fill="#000000" fill-opacity="1">
        <g transform="translate(95.343291, 140.648647)">
            <g>
                <path
                    d="M 38.734375 -49.015625 L 26.984375 -19.828125 C 25.148438 -15.296875 24.234375 -11.5625 24.234375 -8.625 C 24.234375 -4.582031 26.066406 -1.707031 29.734375 0 L 3.484375 0 C 4.710938 0 6.488281 -1.222656 8.8125 -3.671875 C 11.132812 -6.117188 13.828125 -10.953125 16.890625 -18.171875 L 64.796875 -132.171875 L 112.34375 -17.625 C 115.039062 -11.007812 117.644531 -6.476562 120.15625 -4.03125 C 122.664062 -1.582031 124.65625 -0.238281 126.125 0 L 95.640625 0 C 98.703125 -1.46875 100.234375 -3.734375 100.234375 -6.796875 C 100.234375 -9.359375 99.253906 -13.03125 97.296875 -17.8125 L 84.453125 -49.015625 Z M 81.515625 -56.546875 L 61.5 -105.5625 L 41.859375 -56.546875 Z M 81.515625 -56.546875 " />
            </g>
        </g>
    </g>
    <g fill="#ffffff" fill-opacity="1">
        <g transform="translate(9.06227, 135.6768)">
            <g>
                <path
                    d="M 23.5 -109.234375 C 23.5 -114.128906 22.914062 -117.828125 21.75 -120.328125 C 20.59375 -122.835938 19.28125 -124.519531 17.8125 -125.375 C 16.34375 -126.238281 15.609375 -126.546875 15.609375 -126.296875 L 44.796875 -126.296875 C 44.796875 -126.546875 44.0625 -126.238281 42.59375 -125.375 C 41.125 -124.519531 39.773438 -122.835938 38.546875 -120.328125 C 37.328125 -117.828125 36.71875 -114.128906 36.71875 -109.234375 L 36.71875 -7.34375 L 66.828125 -7.34375 C 72.328125 -7.34375 77.066406 -8.472656 81.046875 -10.734375 C 85.023438 -13.003906 87.875 -15.910156 89.59375 -19.453125 L 86.28125 0 L 15.609375 0 C 15.609375 0.363281 16.34375 0.0859375 17.8125 -0.828125 C 19.28125 -1.742188 20.59375 -3.578125 21.75 -6.328125 C 22.914062 -9.085938 23.5 -13.097656 23.5 -18.359375 Z M 23.5 -109.234375 " />
            </g>
        </g>
    </g>
    <g fill="#ffffff" fill-opacity="1">
        <g transform="translate(101.941155, 135.6768)">
            <g>
                <path
                    d="M 38.734375 -49.015625 L 26.984375 -19.828125 C 25.148438 -15.296875 24.234375 -11.5625 24.234375 -8.625 C 24.234375 -4.582031 26.066406 -1.707031 29.734375 0 L 3.484375 0 C 4.710938 0 6.488281 -1.222656 8.8125 -3.671875 C 11.132812 -6.117188 13.828125 -10.953125 16.890625 -18.171875 L 64.796875 -132.171875 L 112.34375 -17.625 C 115.039062 -11.007812 117.644531 -6.476562 120.15625 -4.03125 C 122.664062 -1.582031 124.65625 -0.238281 126.125 0 L 95.640625 0 C 98.703125 -1.46875 100.234375 -3.734375 100.234375 -6.796875 C 100.234375 -9.359375 99.253906 -13.03125 97.296875 -17.8125 L 84.453125 -49.015625 Z M 81.515625 -56.546875 L 61.5 -105.5625 L 41.859375 -56.546875 Z M 81.515625 -56.546875 " />
            </g>
        </g>
    </g>
    <g fill="#000000" fill-opacity="1">
        <g transform="translate(221.623, 140.648647)">
            <g />
        </g>
    </g>
    <g fill="#ffffff" fill-opacity="1">
        <g transform="translate(228.220865, 135.6768)">
            <g />
        </g>
    </g>
    <g fill="#000000" fill-opacity="1">
        <g transform="translate(197.532405, 139.278065)">
            <g>
                <path
                    d="M 114.898438 0 L 154.472656 -94.105469 C 160.308594 -107.417969 157.207031 -121.828125 143.164062 -127.296875 C 128.390625 -133.132812 113.253906 -124.5625 106.140625 -106.691406 L 95.019531 -80.976562 L 75.140625 -128.941406 L 59.820312 -128.941406 L 87.359375 -62.738281 L 68.753906 -18.238281 L 22.25 -128.941406 L 6.382812 -128.941406 L 60.914062 0 L 62.554688 0 L 87.90625 -61.097656 L 113.621094 0 Z M 96.113281 -78.96875 L 107.417969 -106.691406 C 113.621094 -121.097656 126.933594 -132.039062 142.800781 -126.203125 C 156.296875 -120.914062 158.667969 -106.691406 153.558594 -94.105469 L 121.460938 -18.238281 Z M 96.113281 -78.96875 " />
            </g>
        </g>
    </g>
    <g fill="#ffffff" fill-opacity="1">
        <g transform="translate(204.087287, 134.338604)">
            <g>
                <path
                    d="M 114.898438 0 L 154.472656 -94.105469 C 160.308594 -107.417969 157.207031 -121.828125 143.164062 -127.296875 C 128.390625 -133.132812 113.253906 -124.5625 106.140625 -106.691406 L 95.019531 -80.976562 L 75.140625 -128.941406 L 59.820312 -128.941406 L 87.359375 -62.738281 L 68.753906 -18.238281 L 22.25 -128.941406 L 6.382812 -128.941406 L 60.914062 0 L 62.554688 0 L 87.90625 -61.097656 L 113.621094 0 Z M 96.113281 -78.96875 L 107.417969 -106.691406 C 113.621094 -121.097656 126.933594 -132.039062 142.800781 -126.203125 C 156.296875 -120.914062 158.667969 -106.691406 153.558594 -94.105469 L 121.460938 -18.238281 Z M 96.113281 -78.96875 " />
            </g>
        </g>
    </g>
    <g fill="#000000" fill-opacity="1">
        <g transform="translate(349.019485, 140.648647)">
            <g>
                <path
                    d="M 49.015625 2.203125 C 42.648438 2.203125 36.53125 1.316406 30.65625 -0.453125 C 24.78125 -2.234375 19.519531 -4.710938 14.875 -7.890625 L 14.875 -30.109375 C 18.050781 -21.910156 22.910156 -15.695312 29.453125 -11.46875 C 36.003906 -7.25 42.832031 -5.140625 49.9375 -5.140625 C 57.03125 -5.140625 62.960938 -7.492188 67.734375 -12.203125 C 72.515625 -16.921875 74.90625 -22.765625 74.90625 -29.734375 C 74.90625 -34.390625 73.953125 -38.367188 72.046875 -41.671875 C 70.148438 -44.972656 67.117188 -48.0625 62.953125 -50.9375 C 58.796875 -53.8125 52.925781 -57.023438 45.34375 -60.578125 C 34.695312 -65.472656 26.957031 -70.582031 22.125 -75.90625 C 17.289062 -81.226562 14.875 -87.6875 14.875 -95.28125 C 14.875 -101.757812 16.429688 -107.539062 19.546875 -112.625 C 22.671875 -117.707031 26.894531 -121.625 32.21875 -124.375 C 37.539062 -127.125 43.382812 -128.5 49.75 -128.5 C 55.257812 -128.5 60.644531 -127.734375 65.90625 -126.203125 C 71.164062 -124.679688 76.0625 -122.507812 80.59375 -119.6875 L 80.59375 -99.859375 C 77.65625 -106.597656 73.21875 -111.832031 67.28125 -115.5625 C 61.34375 -119.289062 55.316406 -121.15625 49.203125 -121.15625 C 42.222656 -121.15625 36.59375 -118.890625 32.3125 -114.359375 C 28.03125 -109.835938 25.890625 -104.457031 25.890625 -98.21875 C 25.890625 -93.6875 27.171875 -89.796875 29.734375 -86.546875 C 32.304688 -83.304688 35.457031 -80.582031 39.1875 -78.375 C 42.925781 -76.175781 48.160156 -73.488281 54.890625 -70.3125 C 61.742188 -67.007812 67.375 -63.945312 71.78125 -61.125 C 76.1875 -58.3125 79.859375 -54.640625 82.796875 -50.109375 C 85.734375 -45.585938 87.203125 -40.082031 87.203125 -33.59375 C 87.203125 -26.25 85.457031 -19.882812 81.96875 -14.5 C 78.476562 -9.113281 73.828125 -4.984375 68.015625 -2.109375 C 62.203125 0.765625 55.867188 2.203125 49.015625 2.203125 Z M 49.015625 2.203125 " />
            </g>
        </g>
    </g>
    <g fill="#000000" fill-opacity="1">
        <g transform="translate(445.936578, 140.648647)">
            <g>
                <path
                    d="M 11.75 -61.6875 C 11.75 -74.65625 14.53125 -86.21875 20.09375 -96.375 C 25.664062 -106.53125 33.5 -114.421875 43.59375 -120.046875 C 53.695312 -125.679688 65.359375 -128.5 78.578125 -128.5 C 89.585938 -128.5 99.894531 -126.082031 109.5 -121.25 C 119.113281 -116.414062 126.828125 -109.164062 132.640625 -99.5 C 138.453125 -89.832031 141.359375 -78.207031 141.359375 -64.625 C 141.359375 -51.644531 138.570312 -40.078125 133 -29.921875 C 127.4375 -19.765625 119.601562 -11.867188 109.5 -6.234375 C 99.40625 -0.609375 87.75 2.203125 74.53125 2.203125 C 63.519531 2.203125 53.207031 -0.210938 43.59375 -5.046875 C 33.988281 -9.878906 26.28125 -17.128906 20.46875 -26.796875 C 14.65625 -36.472656 11.75 -48.101562 11.75 -61.6875 Z M 126.671875 -61.859375 C 126.671875 -73.003906 124.375 -83.070312 119.78125 -92.0625 C 115.195312 -101.0625 108.894531 -108.097656 100.875 -113.171875 C 92.863281 -118.253906 83.835938 -120.796875 73.796875 -120.796875 C 64.617188 -120.796875 56.445312 -118.46875 49.28125 -113.8125 C 42.125 -109.164062 36.523438 -102.585938 32.484375 -94.078125 C 28.453125 -85.578125 26.4375 -75.695312 26.4375 -64.4375 C 26.4375 -53.300781 28.726562 -43.234375 33.3125 -34.234375 C 37.90625 -25.242188 44.207031 -18.207031 52.21875 -13.125 C 60.238281 -8.039062 69.269531 -5.5 79.3125 -5.5 C 88.488281 -5.5 96.65625 -7.820312 103.8125 -12.46875 C 110.96875 -17.125 116.566406 -23.707031 120.609375 -32.21875 C 124.648438 -40.726562 126.671875 -50.609375 126.671875 -61.859375 Z M 126.671875 -61.859375 " />
            </g>
        </g>
    </g>
    <g fill="#000000" fill-opacity="1">
        <g transform="translate(596.084646, 140.648647)">
            <g>
                <path
                    d="M 133.828125 -126.296875 C 132.117188 -125.929688 130.4375 -124.554688 128.78125 -122.171875 C 127.125 -119.785156 126.296875 -115.59375 126.296875 -109.59375 L 126.296875 5.140625 L 32.3125 -104.453125 L 32.3125 -16.515625 C 32.3125 -10.640625 33.347656 -6.507812 35.421875 -4.125 C 37.503906 -1.738281 39.523438 -0.363281 41.484375 0 L 15.609375 0 C 17.316406 -0.363281 19.054688 -1.738281 20.828125 -4.125 C 22.609375 -6.507812 23.5 -10.703125 23.5 -16.703125 L 23.5 -108.5 C 23.5 -112.65625 22.085938 -116.445312 19.265625 -119.875 C 16.453125 -123.300781 12.90625 -125.441406 8.625 -126.296875 L 31.390625 -126.296875 L 117.484375 -25.890625 L 117.484375 -109.59375 C 117.484375 -119.019531 114.300781 -124.585938 107.9375 -126.296875 Z M 133.828125 -126.296875 " />
            </g>
        </g>
    </g>
    <g fill="#ffffff" fill-opacity="1">
        <g transform="translate(355.617347, 135.6768)">
            <g>
                <path
                    d="M 49.015625 2.203125 C 42.648438 2.203125 36.53125 1.316406 30.65625 -0.453125 C 24.78125 -2.234375 19.519531 -4.710938 14.875 -7.890625 L 14.875 -30.109375 C 18.050781 -21.910156 22.910156 -15.695312 29.453125 -11.46875 C 36.003906 -7.25 42.832031 -5.140625 49.9375 -5.140625 C 57.03125 -5.140625 62.960938 -7.492188 67.734375 -12.203125 C 72.515625 -16.921875 74.90625 -22.765625 74.90625 -29.734375 C 74.90625 -34.390625 73.953125 -38.367188 72.046875 -41.671875 C 70.148438 -44.972656 67.117188 -48.0625 62.953125 -50.9375 C 58.796875 -53.8125 52.925781 -57.023438 45.34375 -60.578125 C 34.695312 -65.472656 26.957031 -70.582031 22.125 -75.90625 C 17.289062 -81.226562 14.875 -87.6875 14.875 -95.28125 C 14.875 -101.757812 16.429688 -107.539062 19.546875 -112.625 C 22.671875 -117.707031 26.894531 -121.625 32.21875 -124.375 C 37.539062 -127.125 43.382812 -128.5 49.75 -128.5 C 55.257812 -128.5 60.644531 -127.734375 65.90625 -126.203125 C 71.164062 -124.679688 76.0625 -122.507812 80.59375 -119.6875 L 80.59375 -99.859375 C 77.65625 -106.597656 73.21875 -111.832031 67.28125 -115.5625 C 61.34375 -119.289062 55.316406 -121.15625 49.203125 -121.15625 C 42.222656 -121.15625 36.59375 -118.890625 32.3125 -114.359375 C 28.03125 -109.835938 25.890625 -104.457031 25.890625 -98.21875 C 25.890625 -93.6875 27.171875 -89.796875 29.734375 -86.546875 C 32.304688 -83.304688 35.457031 -80.582031 39.1875 -78.375 C 42.925781 -76.175781 48.160156 -73.488281 54.890625 -70.3125 C 61.742188 -67.007812 67.375 -63.945312 71.78125 -61.125 C 76.1875 -58.3125 79.859375 -54.640625 82.796875 -50.109375 C 85.734375 -45.585938 87.203125 -40.082031 87.203125 -33.59375 C 87.203125 -26.25 85.457031 -19.882812 81.96875 -14.5 C 78.476562 -9.113281 73.828125 -4.984375 68.015625 -2.109375 C 62.203125 0.765625 55.867188 2.203125 49.015625 2.203125 Z M 49.015625 2.203125 " />
            </g>
        </g>
    </g>
    <g fill="#ffffff" fill-opacity="1">
        <g transform="translate(452.534439, 135.6768)">
            <g>
                <path
                    d="M 11.75 -61.6875 C 11.75 -74.65625 14.53125 -86.21875 20.09375 -96.375 C 25.664062 -106.53125 33.5 -114.421875 43.59375 -120.046875 C 53.695312 -125.679688 65.359375 -128.5 78.578125 -128.5 C 89.585938 -128.5 99.894531 -126.082031 109.5 -121.25 C 119.113281 -116.414062 126.828125 -109.164062 132.640625 -99.5 C 138.453125 -89.832031 141.359375 -78.207031 141.359375 -64.625 C 141.359375 -51.644531 138.570312 -40.078125 133 -29.921875 C 127.4375 -19.765625 119.601562 -11.867188 109.5 -6.234375 C 99.40625 -0.609375 87.75 2.203125 74.53125 2.203125 C 63.519531 2.203125 53.207031 -0.210938 43.59375 -5.046875 C 33.988281 -9.878906 26.28125 -17.128906 20.46875 -26.796875 C 14.65625 -36.472656 11.75 -48.101562 11.75 -61.6875 Z M 126.671875 -61.859375 C 126.671875 -73.003906 124.375 -83.070312 119.78125 -92.0625 C 115.195312 -101.0625 108.894531 -108.097656 100.875 -113.171875 C 92.863281 -118.253906 83.835938 -120.796875 73.796875 -120.796875 C 64.617188 -120.796875 56.445312 -118.46875 49.28125 -113.8125 C 42.125 -109.164062 36.523438 -102.585938 32.484375 -94.078125 C 28.453125 -85.578125 26.4375 -75.695312 26.4375 -64.4375 C 26.4375 -53.300781 28.726562 -43.234375 33.3125 -34.234375 C 37.90625 -25.242188 44.207031 -18.207031 52.21875 -13.125 C 60.238281 -8.039062 69.269531 -5.5 79.3125 -5.5 C 88.488281 -5.5 96.65625 -7.820312 103.8125 -12.46875 C 110.96875 -17.125 116.566406 -23.707031 120.609375 -32.21875 C 124.648438 -40.726562 126.671875 -50.609375 126.671875 -61.859375 Z M 126.671875 -61.859375 " />
            </g>
        </g>
    </g>
    <g fill="#ffffff" fill-opacity="1">
        <g transform="translate(602.682507, 135.6768)">
            <g>
                <path
                    d="M 133.828125 -126.296875 C 132.117188 -125.929688 130.4375 -124.554688 128.78125 -122.171875 C 127.125 -119.785156 126.296875 -115.59375 126.296875 -109.59375 L 126.296875 5.140625 L 32.3125 -104.453125 L 32.3125 -16.515625 C 32.3125 -10.640625 33.347656 -6.507812 35.421875 -4.125 C 37.503906 -1.738281 39.523438 -0.363281 41.484375 0 L 15.609375 0 C 17.316406 -0.363281 19.054688 -1.738281 20.828125 -4.125 C 22.609375 -6.507812 23.5 -10.703125 23.5 -16.703125 L 23.5 -108.5 C 23.5 -112.65625 22.085938 -116.445312 19.265625 -119.875 C 16.453125 -123.300781 12.90625 -125.441406 8.625 -126.296875 L 31.390625 -126.296875 L 117.484375 -25.890625 L 117.484375 -109.59375 C 117.484375 -119.019531 114.300781 -124.585938 107.9375 -126.296875 Z M 133.828125 -126.296875 " />
            </g>
        </g>
    </g>
</svg>